<?xml version="1.0" encoding="UTF-8" standalone="no"?><svg xmlns="http://www.w3.org/2000/svg" xmlns:xlink="http://www.w3.org/1999/xlink" contentScriptType="application/ecmascript" contentStyleType="text/css" height="828px" preserveAspectRatio="none" style="width:1292px;height:828px;background:#FFFFFF;" version="1.1" viewBox="0 0 1292 828" width="1292px" zoomAndPan="magnify"><defs><filter height="300%" id="fj3mq4oeoqgo6" width="300%" x="-1" y="-1"><feGaussianBlur result="blurOut" stdDeviation="2.0"/><feColorMatrix in="blurOut" result="blurOut2" type="matrix" values="0 0 0 0 0 0 0 0 0 0 0 0 0 0 0 0 0 0 .4 0"/><feOffset dx="4.0" dy="4.0" in="blurOut2" result="blurOut3"/><feBlend in="SourceGraphic" in2="blurOut3" mode="normal"/></filter></defs><g><text fill="#000000" font-family="sans-serif" font-size="18" lengthAdjust="spacing" textLength="166" x="556.5" y="16.708">ml4trade structure</text><!--MD5=[5a2cb3656f736d6aa014d305976a2aaf]
cluster gym--><polygon fill="#FFFFFF" filter="url(#fj3mq4oeoqgo6)" points="336,26.9531,375,26.9531,382,49.25,446,49.25,446,143.9531,336,143.9531,336,26.9531" style="stroke:#000000;stroke-width:1.5;"/><line style="stroke:#000000;stroke-width:1.5;" x1="336" x2="382" y1="49.25" y2="49.25"/><text fill="#000000" font-family="sans-serif" font-size="14" font-weight="bold" lengthAdjust="spacing" textLength="33" x="340" y="41.9482">gym</text><!--MD5=[4107852fb35c509c9e9158533a529f63]
cluster gym_anytrading--><polygon fill="#FFFFFF" filter="url(#fj3mq4oeoqgo6)" points="1135,528.9531,1265,528.9531,1272,551.25,1275,551.25,1275,645.9531,1135,645.9531,1135,528.9531" style="stroke:#000000;stroke-width:1.5;"/><line style="stroke:#000000;stroke-width:1.5;" x1="1135" x2="1272" y1="551.25" y2="551.25"/><text fill="#000000" font-family="sans-serif" font-size="14" font-weight="bold" lengthAdjust="spacing" textLength="124" x="1139" y="543.9482">gym_anytrading</text><!--MD5=[fac9ffb0bfbe2d2026bd66be0d747183]
cluster ml4trade--><polygon fill="#FFFFFF" filter="url(#fj3mq4oeoqgo6)" points="16,167.9531,92,167.9531,99,190.25,1111,190.25,1111,821.9531,16,821.9531,16,167.9531" style="stroke:#000000;stroke-width:1.5;"/><line style="stroke:#000000;stroke-width:1.5;" x1="16" x2="99" y1="190.25" y2="190.25"/><text fill="#000000" font-family="sans-serif" font-size="14" font-weight="bold" lengthAdjust="spacing" textLength="70" x="20" y="182.9482">ml4trade</text><!--MD5=[e0911ba7587a1afa95247fc875676098]
cluster stable_baselines3--><polygon fill="#FFFFFF" filter="url(#fj3mq4oeoqgo6)" points="883,26.9531,1029,26.9531,1036,49.25,1039,49.25,1039,143.9531,883,143.9531,883,26.9531" style="stroke:#000000;stroke-width:1.5;"/><line style="stroke:#000000;stroke-width:1.5;" x1="883" x2="1036" y1="49.25" y2="49.25"/><text fill="#000000" font-family="sans-serif" font-size="14" font-weight="bold" lengthAdjust="spacing" textLength="140" x="887" y="41.9482">stable_baselines3</text><!--MD5=[dace157eedc13e3f03b23604e79f5584]
class gym.Env--><rect codeLine="6" fill="#FEFECE" filter="url(#fj3mq4oeoqgo6)" height="65.6094" id="gym.Env" style="stroke:#A80036;stroke-width:1.5;" width="79" x="351.5" y="61.9531"/><ellipse cx="377.75" cy="77.9531" fill="#B4A7E5" rx="11" ry="11" style="stroke:#A80036;stroke-width:1.0;"/><path d="M373.6719,73.7188 L373.6719,71.5625 L381.0625,71.5625 L381.0625,73.7188 L378.5938,73.7188 L378.5938,81.7969 L381.0625,81.7969 L381.0625,83.9531 L373.6719,83.9531 L373.6719,81.7969 L376.1406,81.7969 L376.1406,73.7188 L373.6719,73.7188 Z " fill="#000000"/><text fill="#000000" font-family="sans-serif" font-size="12" font-style="italic" lengthAdjust="spacing" textLength="22" x="394.25" y="82.1074">Env</text><line style="stroke:#A80036;stroke-width:1.5;" x1="352.5" x2="429.5" y1="93.9531" y2="93.9531"/><text fill="#000000" font-family="sans-serif" font-size="11" lengthAdjust="spacing" textLength="38" x="357.5" y="108.1636">reset()</text><text fill="#000000" font-family="sans-serif" font-size="11" lengthAdjust="spacing" textLength="67" x="357.5" y="120.9683">step(action)</text><!--MD5=[d36d870c6394f8a73cfcda168a0c6a12]
class gym_anytrading.TradingEnv--><rect codeLine="11" fill="#FEFECE" filter="url(#fj3mq4oeoqgo6)" height="65.6094" id="gym_anytrading.TradingEnv" style="stroke:#A80036;stroke-width:1.5;" width="101" x="1151.5" y="563.9531"/><ellipse cx="1166.5" cy="579.9531" fill="#ADD1B2" rx="11" ry="11" style="stroke:#A80036;stroke-width:1.0;"/><path d="M1169.4688,585.5938 Q1168.8906,585.8906 1168.25,586.0313 Q1167.6094,586.1875 1166.9063,586.1875 Q1164.4063,586.1875 1163.0781,584.5469 Q1161.7656,582.8906 1161.7656,579.7656 Q1161.7656,576.6406 1163.0781,574.9844 Q1164.4063,573.3281 1166.9063,573.3281 Q1167.6094,573.3281 1168.25,573.4844 Q1168.9063,573.6406 1169.4688,573.9375 L1169.4688,576.6563 Q1168.8438,576.0781 1168.25,575.8125 Q1167.6563,575.5313 1167.0313,575.5313 Q1165.6875,575.5313 1165,576.6094 Q1164.3125,577.6719 1164.3125,579.7656 Q1164.3125,581.8594 1165,582.9375 Q1165.6875,584 1167.0313,584 Q1167.6563,584 1168.25,583.7344 Q1168.8438,583.4531 1169.4688,582.875 L1169.4688,585.5938 Z " fill="#000000"/><text fill="#000000" font-family="sans-serif" font-size="12" lengthAdjust="spacing" textLength="69" x="1180.5" y="584.1074">TradingEnv</text><line style="stroke:#A80036;stroke-width:1.5;" x1="1152.5" x2="1251.5" y1="595.9531" y2="595.9531"/><text fill="#000000" font-family="sans-serif" font-size="11" lengthAdjust="spacing" textLength="38" x="1157.5" y="610.1636">reset()</text><text fill="#000000" font-family="sans-serif" font-size="11" lengthAdjust="spacing" textLength="67" x="1157.5" y="622.9683">step(action)</text><!--MD5=[e5d76306fcb8e5986b9646c58c6bbabe]
class ml4trade.Unit--><rect codeLine="16" fill="#FEFECE" filter="url(#fj3mq4oeoqgo6)" height="52.8047" id="ml4trade.Unit" style="stroke:#A80036;stroke-width:1.5;" width="75" x="896.5" y="202.9531"/><ellipse cx="919.6" cy="218.9531" fill="#B4A7E5" rx="11" ry="11" style="stroke:#A80036;stroke-width:1.0;"/><path d="M915.5219,214.7188 L915.5219,212.5625 L922.9125,212.5625 L922.9125,214.7188 L920.4438,214.7188 L920.4438,222.7969 L922.9125,222.7969 L922.9125,224.9531 L915.5219,224.9531 L915.5219,222.7969 L917.9906,222.7969 L917.9906,214.7188 L915.5219,214.7188 Z " fill="#000000"/><text fill="#000000" font-family="sans-serif" font-size="12" font-style="italic" lengthAdjust="spacing" textLength="25" x="935.4" y="223.1074">Unit</text><line style="stroke:#A80036;stroke-width:1.5;" x1="897.5" x2="970.5" y1="234.9531" y2="234.9531"/><text fill="#000000" font-family="sans-serif" font-size="11" lengthAdjust="spacing" textLength="63" x="902.5" y="249.1636">value: float</text><!--MD5=[efffdacd5d37dba9c74dfc9315cab0e5]
class ml4trade.Ah--><rect codeLine="19" fill="#FEFECE" filter="url(#fj3mq4oeoqgo6)" height="32" id="ml4trade.Ah" style="stroke:#A80036;stroke-width:1.5;" width="48" x="962" y="391.9531"/><ellipse cx="977" cy="407.9531" fill="#ADD1B2" rx="11" ry="11" style="stroke:#A80036;stroke-width:1.0;"/><path d="M979.9688,413.5938 Q979.3906,413.8906 978.75,414.0313 Q978.1094,414.1875 977.4063,414.1875 Q974.9063,414.1875 973.5781,412.5469 Q972.2656,410.8906 972.2656,407.7656 Q972.2656,404.6406 973.5781,402.9844 Q974.9063,401.3281 977.4063,401.3281 Q978.1094,401.3281 978.75,401.4844 Q979.4063,401.6406 979.9688,401.9375 L979.9688,404.6563 Q979.3438,404.0781 978.75,403.8125 Q978.1563,403.5313 977.5313,403.5313 Q976.1875,403.5313 975.5,404.6094 Q974.8125,405.6719 974.8125,407.7656 Q974.8125,409.8594 975.5,410.9375 Q976.1875,412 977.5313,412 Q978.1563,412 978.75,411.7344 Q979.3438,411.4531 979.9688,410.875 L979.9688,413.5938 Z " fill="#000000"/><text fill="#000000" font-family="sans-serif" font-size="12" lengthAdjust="spacing" textLength="16" x="991" y="412.1074">Ah</text><!--MD5=[9e5d681f9c3348faf1c3110ac9cf51d0]
class ml4trade.KW--><rect codeLine="20" fill="#FEFECE" filter="url(#fj3mq4oeoqgo6)" height="32" id="ml4trade.KW" style="stroke:#A80036;stroke-width:1.5;" width="50" x="1045" y="391.9531"/><ellipse cx="1060" cy="407.9531" fill="#ADD1B2" rx="11" ry="11" style="stroke:#A80036;stroke-width:1.0;"/><path d="M1062.9688,413.5938 Q1062.3906,413.8906 1061.75,414.0313 Q1061.1094,414.1875 1060.4063,414.1875 Q1057.9063,414.1875 1056.5781,412.5469 Q1055.2656,410.8906 1055.2656,407.7656 Q1055.2656,404.6406 1056.5781,402.9844 Q1057.9063,401.3281 1060.4063,401.3281 Q1061.1094,401.3281 1061.75,401.4844 Q1062.4063,401.6406 1062.9688,401.9375 L1062.9688,404.6563 Q1062.3438,404.0781 1061.75,403.8125 Q1061.1563,403.5313 1060.5313,403.5313 Q1059.1875,403.5313 1058.5,404.6094 Q1057.8125,405.6719 1057.8125,407.7656 Q1057.8125,409.8594 1058.5,410.9375 Q1059.1875,412 1060.5313,412 Q1061.1563,412 1061.75,411.7344 Q1062.3438,411.4531 1062.9688,410.875 L1062.9688,413.5938 Z " fill="#000000"/><text fill="#000000" font-family="sans-serif" font-size="12" lengthAdjust="spacing" textLength="18" x="1074" y="412.1074">KW</text><!--MD5=[0b161e331d02cfd6ba97ea266e250b28]
class ml4trade.KWh--><rect codeLine="21" fill="#FEFECE" filter="url(#fj3mq4oeoqgo6)" height="32" id="ml4trade.KWh" style="stroke:#A80036;stroke-width:1.5;" width="58" x="746" y="391.9531"/><ellipse cx="761" cy="407.9531" fill="#ADD1B2" rx="11" ry="11" style="stroke:#A80036;stroke-width:1.0;"/><path d="M763.9688,413.5938 Q763.3906,413.8906 762.75,414.0313 Q762.1094,414.1875 761.4063,414.1875 Q758.9063,414.1875 757.5781,412.5469 Q756.2656,410.8906 756.2656,407.7656 Q756.2656,404.6406 757.5781,402.9844 Q758.9063,401.3281 761.4063,401.3281 Q762.1094,401.3281 762.75,401.4844 Q763.4063,401.6406 763.9688,401.9375 L763.9688,404.6563 Q763.3438,404.0781 762.75,403.8125 Q762.1563,403.5313 761.5313,403.5313 Q760.1875,403.5313 759.5,404.6094 Q758.8125,405.6719 758.8125,407.7656 Q758.8125,409.8594 759.5,410.9375 Q760.1875,412 761.5313,412 Q762.1563,412 762.75,411.7344 Q763.3438,411.4531 763.9688,410.875 L763.9688,413.5938 Z " fill="#000000"/><text fill="#000000" font-family="sans-serif" font-size="12" lengthAdjust="spacing" textLength="26" x="775" y="412.1074">KWh</text><!--MD5=[b8a7ec9979692f67471976e081be9698]
class ml4trade.Currency--><rect codeLine="22" fill="#FEFECE" filter="url(#fj3mq4oeoqgo6)" height="32" id="ml4trade.Currency" style="stroke:#A80036;stroke-width:1.5;" width="87" x="839.5" y="391.9531"/><ellipse cx="854.5" cy="407.9531" fill="#ADD1B2" rx="11" ry="11" style="stroke:#A80036;stroke-width:1.0;"/><path d="M857.4688,413.5938 Q856.8906,413.8906 856.25,414.0313 Q855.6094,414.1875 854.9063,414.1875 Q852.4063,414.1875 851.0781,412.5469 Q849.7656,410.8906 849.7656,407.7656 Q849.7656,404.6406 851.0781,402.9844 Q852.4063,401.3281 854.9063,401.3281 Q855.6094,401.3281 856.25,401.4844 Q856.9063,401.6406 857.4688,401.9375 L857.4688,404.6563 Q856.8438,404.0781 856.25,403.8125 Q855.6563,403.5313 855.0313,403.5313 Q853.6875,403.5313 853,404.6094 Q852.3125,405.6719 852.3125,407.7656 Q852.3125,409.8594 853,410.9375 Q853.6875,412 855.0313,412 Q855.6563,412 856.25,411.7344 Q856.8438,411.4531 857.4688,410.875 L857.4688,413.5938 Z " fill="#000000"/><text fill="#000000" font-family="sans-serif" font-size="12" lengthAdjust="spacing" textLength="55" x="868.5" y="412.1074">Currency</text><!--MD5=[527214ac39eabefafc3fe19dae51f011]
class ml4trade.SimulationEnv--><rect codeLine="24" fill="#FEFECE" filter="url(#fj3mq4oeoqgo6)" height="52.8047" id="ml4trade.SimulationEnv" style="stroke:#A80036;stroke-width:1.5;" width="119" x="331.5" y="202.9531"/><ellipse cx="346.5" cy="218.9531" fill="#ADD1B2" rx="11" ry="11" style="stroke:#A80036;stroke-width:1.0;"/><path d="M349.4688,224.5938 Q348.8906,224.8906 348.25,225.0313 Q347.6094,225.1875 346.9063,225.1875 Q344.4063,225.1875 343.0781,223.5469 Q341.7656,221.8906 341.7656,218.7656 Q341.7656,215.6406 343.0781,213.9844 Q344.4063,212.3281 346.9063,212.3281 Q347.6094,212.3281 348.25,212.4844 Q348.9063,212.6406 349.4688,212.9375 L349.4688,215.6563 Q348.8438,215.0781 348.25,214.8125 Q347.6563,214.5313 347.0313,214.5313 Q345.6875,214.5313 345,215.6094 Q344.3125,216.6719 344.3125,218.7656 Q344.3125,220.8594 345,221.9375 Q345.6875,223 347.0313,223 Q347.6563,223 348.25,222.7344 Q348.8438,222.4531 349.4688,221.875 L349.4688,224.5938 Z " fill="#000000"/><text fill="#000000" font-family="sans-serif" font-size="12" lengthAdjust="spacing" textLength="87" x="360.5" y="223.1074">SimulationEnv</text><line style="stroke:#A80036;stroke-width:1.5;" x1="332.5" x2="449.5" y1="234.9531" y2="234.9531"/><text fill="#000000" font-family="sans-serif" font-size="11" lengthAdjust="spacing" textLength="89" x="337.5" y="249.1636">_simulate_day()</text><!--MD5=[42f1d57dea8e45693a725867474729a5]
class ml4trade.EnergyMarket--><rect codeLine="28" fill="#FEFECE" filter="url(#fj3mq4oeoqgo6)" height="91.2188" id="ml4trade.EnergyMarket" style="stroke:#A80036;stroke-width:1.5;" width="281" x="429.5" y="362.4531"/><ellipse cx="522.75" cy="378.4531" fill="#ADD1B2" rx="11" ry="11" style="stroke:#A80036;stroke-width:1.0;"/><path d="M525.7188,384.0938 Q525.1406,384.3906 524.5,384.5313 Q523.8594,384.6875 523.1563,384.6875 Q520.6563,384.6875 519.3281,383.0469 Q518.0156,381.3906 518.0156,378.2656 Q518.0156,375.1406 519.3281,373.4844 Q520.6563,371.8281 523.1563,371.8281 Q523.8594,371.8281 524.5,371.9844 Q525.1563,372.1406 525.7188,372.4375 L525.7188,375.1563 Q525.0938,374.5781 524.5,374.3125 Q523.9063,374.0313 523.2813,374.0313 Q521.9375,374.0313 521.25,375.1094 Q520.5625,376.1719 520.5625,378.2656 Q520.5625,380.3594 521.25,381.4375 Q521.9375,382.5 523.2813,382.5 Q523.9063,382.5 524.5,382.2344 Q525.0938,381.9531 525.7188,381.375 L525.7188,384.0938 Z " fill="#000000"/><text fill="#000000" font-family="sans-serif" font-size="12" lengthAdjust="spacing" textLength="86" x="543.25" y="382.6074">EnergyMarket</text><line style="stroke:#A80036;stroke-width:1.5;" x1="430.5" x2="709.5" y1="394.4531" y2="394.4531"/><text fill="#000000" font-family="sans-serif" font-size="11" lengthAdjust="spacing" textLength="269" x="435.5" y="408.6636">buy(amount: KWh, price: Currency) -&gt; Currency</text><text fill="#000000" font-family="sans-serif" font-size="11" lengthAdjust="spacing" textLength="269" x="435.5" y="421.4683">sell(amount: KWh, price: Currency) -&gt; Currency</text><text fill="#000000" font-family="sans-serif" font-size="11" lengthAdjust="spacing" textLength="205" x="435.5" y="434.2729">get_current_buy_price() -&gt; Currency</text><text fill="#000000" font-family="sans-serif" font-size="11" lengthAdjust="spacing" textLength="205" x="435.5" y="447.0776">get_current_sell_price() -&gt; Currency</text><!--MD5=[0ed101188ec46299687a98ce1c3ecf1b]
class ml4trade.Prosumer--><rect codeLine="35" fill="#FEFECE" filter="url(#fj3mq4oeoqgo6)" height="184.0469" id="ml4trade.Prosumer" style="stroke:#A80036;stroke-width:1.5;" width="363" x="31.5" y="315.9531"/><ellipse cx="178.75" cy="331.9531" fill="#ADD1B2" rx="11" ry="11" style="stroke:#A80036;stroke-width:1.0;"/><path d="M181.7188,337.5938 Q181.1406,337.8906 180.5,338.0313 Q179.8594,338.1875 179.1563,338.1875 Q176.6563,338.1875 175.3281,336.5469 Q174.0156,334.8906 174.0156,331.7656 Q174.0156,328.6406 175.3281,326.9844 Q176.6563,325.3281 179.1563,325.3281 Q179.8594,325.3281 180.5,325.4844 Q181.1563,325.6406 181.7188,325.9375 L181.7188,328.6563 Q181.0938,328.0781 180.5,327.8125 Q179.9063,327.5313 179.2813,327.5313 Q177.9375,327.5313 177.25,328.6094 Q176.5625,329.6719 176.5625,331.7656 Q176.5625,333.8594 177.25,334.9375 Q177.9375,336 179.2813,336 Q179.9063,336 180.5,335.7344 Q181.0938,335.4531 181.7188,334.875 L181.7188,337.5938 Z " fill="#000000"/><text fill="#000000" font-family="sans-serif" font-size="12" lengthAdjust="spacing" textLength="60" x="199.25" y="336.1074">Prosumer</text><line style="stroke:#A80036;stroke-width:1.5;" x1="32.5" x2="393.5" y1="347.9531" y2="347.9531"/><text fill="#000000" font-family="sans-serif" font-size="11" lengthAdjust="spacing" textLength="103" x="37.5" y="362.1636">balance: Currency</text><text fill="#000000" font-family="sans-serif" font-size="11" lengthAdjust="spacing" textLength="170" x="37.5" y="374.9683">energy_market: EnergyMarket</text><text fill="#000000" font-family="sans-serif" font-size="11" lengthAdjust="spacing" textLength="180" x="37.5" y="387.7729">battery_system: BatterySystem</text><text fill="#000000" font-family="sans-serif" font-size="11" lengthAdjust="spacing" textLength="177" x="37.5" y="400.5776">energy_system: EnergySystem</text><line style="stroke:#A80036;stroke-width:1.0;" x1="32.5" x2="393.5" y1="407.1719" y2="407.1719"/><text fill="#000000" font-family="sans-serif" font-size="11" lengthAdjust="spacing" textLength="351" x="37.5" y="421.3823">_buy(amount: KWh, price: Currency, forced: bool) -&gt; Currency</text><text fill="#000000" font-family="sans-serif" font-size="11" lengthAdjust="spacing" textLength="351" x="37.5" y="434.187">_sell(amount: KWh, price: Currency, forced: bool) -&gt; Currency</text><line style="stroke:#A80036;stroke-width:1.0;" x1="32.5" x2="393.5" y1="440.7813" y2="440.7813"/><text fill="#000000" font-family="sans-serif" font-size="11" lengthAdjust="spacing" textLength="105" x="37.5" y="454.9917">consume_energy()</text><text fill="#000000" font-family="sans-serif" font-size="11" lengthAdjust="spacing" textLength="99" x="37.5" y="467.7964">produce_energy()</text><text fill="#000000" font-family="sans-serif" font-size="11" lengthAdjust="spacing" textLength="170" x="37.5" y="480.6011">send_scheduled_transaction()</text><text fill="#000000" font-family="sans-serif" font-size="11" lengthAdjust="spacing" textLength="199" x="37.5" y="493.4058">schedule_new_transactions(action)</text><!--MD5=[b73fe6d68b3a9b78adc439db75c69ba7]
class ml4trade.BatterySystem--><rect codeLine="50" fill="#FEFECE" filter="url(#fj3mq4oeoqgo6)" height="32" id="ml4trade.BatterySystem" style="stroke:#A80036;stroke-width:1.5;" width="122" x="105" y="580.9531"/><ellipse cx="120" cy="596.9531" fill="#ADD1B2" rx="11" ry="11" style="stroke:#A80036;stroke-width:1.0;"/><path d="M122.9688,602.5938 Q122.3906,602.8906 121.75,603.0313 Q121.1094,603.1875 120.4063,603.1875 Q117.9063,603.1875 116.5781,601.5469 Q115.2656,599.8906 115.2656,596.7656 Q115.2656,593.6406 116.5781,591.9844 Q117.9063,590.3281 120.4063,590.3281 Q121.1094,590.3281 121.75,590.4844 Q122.4063,590.6406 122.9688,590.9375 L122.9688,593.6563 Q122.3438,593.0781 121.75,592.8125 Q121.1563,592.5313 120.5313,592.5313 Q119.1875,592.5313 118.5,593.6094 Q117.8125,594.6719 117.8125,596.7656 Q117.8125,598.8594 118.5,599.9375 Q119.1875,601 120.5313,601 Q121.1563,601 121.75,600.7344 Q122.3438,600.4531 122.9688,599.875 L122.9688,602.5938 Z " fill="#000000"/><text fill="#000000" font-family="sans-serif" font-size="12" lengthAdjust="spacing" textLength="90" x="134" y="601.1074">BatterySystem</text><!--MD5=[7c9961fe26f737b8af0bcba184788cee]
class ml4trade.EnergySystem--><rect codeLine="52" fill="#FEFECE" filter="url(#fj3mq4oeoqgo6)" height="73.6094" id="ml4trade.EnergySystem" style="stroke:#A80036;stroke-width:1.5;" width="175" x="262.5" y="559.9531"/><ellipse cx="302.25" cy="575.9531" fill="#ADD1B2" rx="11" ry="11" style="stroke:#A80036;stroke-width:1.0;"/><path d="M305.2188,581.5938 Q304.6406,581.8906 304,582.0313 Q303.3594,582.1875 302.6563,582.1875 Q300.1563,582.1875 298.8281,580.5469 Q297.5156,578.8906 297.5156,575.7656 Q297.5156,572.6406 298.8281,570.9844 Q300.1563,569.3281 302.6563,569.3281 Q303.3594,569.3281 304,569.4844 Q304.6563,569.6406 305.2188,569.9375 L305.2188,572.6563 Q304.5938,572.0781 304,571.8125 Q303.4063,571.5313 302.7813,571.5313 Q301.4375,571.5313 300.75,572.6094 Q300.0625,573.6719 300.0625,575.7656 Q300.0625,577.8594 300.75,578.9375 Q301.4375,580 302.7813,580 Q303.4063,580 304,579.7344 Q304.5938,579.4531 305.2188,578.875 L305.2188,581.5938 Z " fill="#000000"/><text fill="#000000" font-family="sans-serif" font-size="12" lengthAdjust="spacing" textLength="88" x="321.75" y="580.1074">EnergySystem</text><line style="stroke:#A80036;stroke-width:1.5;" x1="263.5" x2="436.5" y1="591.9531" y2="591.9531"/><text fill="#000000" font-family="sans-serif" font-size="11" lengthAdjust="spacing" textLength="160" x="268.5" y="606.1636">systems: list[PowerSystem]</text><line style="stroke:#A80036;stroke-width:1.5;" x1="263.5" x2="436.5" y1="612.7578" y2="612.7578"/><text fill="#000000" font-family="sans-serif" font-size="11" lengthAdjust="spacing" textLength="163" x="268.5" y="626.9683">get_power(date: Date) -&gt; KW</text><!--MD5=[7d64c2b0aff31a40c1dc73669ab56c84]
class ml4trade.PowerSystem--><rect codeLine="58" fill="#FEFECE" filter="url(#fj3mq4oeoqgo6)" height="52.8047" id="ml4trade.PowerSystem" style="stroke:#A80036;stroke-width:1.5;" width="281" x="472.5" y="570.4531"/><ellipse cx="567.25" cy="586.4531" fill="#B4A7E5" rx="11" ry="11" style="stroke:#A80036;stroke-width:1.0;"/><path d="M563.1719,582.2188 L563.1719,580.0625 L570.5625,580.0625 L570.5625,582.2188 L568.0938,582.2188 L568.0938,590.2969 L570.5625,590.2969 L570.5625,592.4531 L563.1719,592.4531 L563.1719,590.2969 L565.6406,590.2969 L565.6406,582.2188 L563.1719,582.2188 Z " fill="#000000"/><text fill="#000000" font-family="sans-serif" font-size="12" font-style="italic" lengthAdjust="spacing" textLength="83" x="587.75" y="590.6074">PowerSystem</text><line style="stroke:#A80036;stroke-width:1.5;" x1="473.5" x2="752.5" y1="602.4531" y2="602.4531"/><text fill="#000000" font-family="sans-serif" font-size="11" lengthAdjust="spacing" textLength="269" x="478.5" y="616.6636">get_power(date: Date, callback: Callable) -&gt; KW</text><!--MD5=[eba236d99363925398fff3bfe58d4688]
class ml4trade.ProductionSystem--><rect codeLine="61" fill="#FEFECE" filter="url(#fj3mq4oeoqgo6)" height="32" id="ml4trade.ProductionSystem" style="stroke:#A80036;stroke-width:1.5;" width="145" x="321.5" y="733.9531"/><ellipse cx="336.5" cy="749.9531" fill="#ADD1B2" rx="11" ry="11" style="stroke:#A80036;stroke-width:1.0;"/><path d="M339.4688,755.5938 Q338.8906,755.8906 338.25,756.0313 Q337.6094,756.1875 336.9063,756.1875 Q334.4063,756.1875 333.0781,754.5469 Q331.7656,752.8906 331.7656,749.7656 Q331.7656,746.6406 333.0781,744.9844 Q334.4063,743.3281 336.9063,743.3281 Q337.6094,743.3281 338.25,743.4844 Q338.9063,743.6406 339.4688,743.9375 L339.4688,746.6563 Q338.8438,746.0781 338.25,745.8125 Q337.6563,745.5313 337.0313,745.5313 Q335.6875,745.5313 335,746.6094 Q334.3125,747.6719 334.3125,749.7656 Q334.3125,751.8594 335,752.9375 Q335.6875,754 337.0313,754 Q337.6563,754 338.25,753.7344 Q338.8438,753.4531 339.4688,752.875 L339.4688,755.5938 Z " fill="#000000"/><text fill="#000000" font-family="sans-serif" font-size="12" lengthAdjust="spacing" textLength="113" x="350.5" y="754.1074">ProductionSystem</text><!--MD5=[71883c68cb99355ded2d13a9d7fe232b]
class ml4trade.ConsumptionSystem--><rect codeLine="62" fill="#FEFECE" filter="url(#fj3mq4oeoqgo6)" height="32" id="ml4trade.ConsumptionSystem" style="stroke:#A80036;stroke-width:1.5;" width="159" x="517.5" y="733.9531"/><ellipse cx="532.5" cy="749.9531" fill="#ADD1B2" rx="11" ry="11" style="stroke:#A80036;stroke-width:1.0;"/><path d="M535.4688,755.5938 Q534.8906,755.8906 534.25,756.0313 Q533.6094,756.1875 532.9063,756.1875 Q530.4063,756.1875 529.0781,754.5469 Q527.7656,752.8906 527.7656,749.7656 Q527.7656,746.6406 529.0781,744.9844 Q530.4063,743.3281 532.9063,743.3281 Q533.6094,743.3281 534.25,743.4844 Q534.9063,743.6406 535.4688,743.9375 L535.4688,746.6563 Q534.8438,746.0781 534.25,745.8125 Q533.6563,745.5313 533.0313,745.5313 Q531.6875,745.5313 531,746.6094 Q530.3125,747.6719 530.3125,749.7656 Q530.3125,751.8594 531,752.9375 Q531.6875,754 533.0313,754 Q533.6563,754 534.25,753.7344 Q534.8438,753.4531 535.4688,752.875 L535.4688,755.5938 Z " fill="#000000"/><text fill="#000000" font-family="sans-serif" font-size="12" lengthAdjust="spacing" textLength="127" x="546.5" y="754.1074">ConsumptionSystem</text><!--MD5=[e46c58faf760d0c84d9949ce894f4704]
class ml4trade.Battery--><rect codeLine="64" fill="#FEFECE" filter="url(#fj3mq4oeoqgo6)" height="112.0234" id="ml4trade.Battery" style="stroke:#A80036;stroke-width:1.5;" width="176" x="78" y="693.9531"/><ellipse cx="139.25" cy="709.9531" fill="#ADD1B2" rx="11" ry="11" style="stroke:#A80036;stroke-width:1.0;"/><path d="M142.2188,715.5938 Q141.6406,715.8906 141,716.0313 Q140.3594,716.1875 139.6563,716.1875 Q137.1563,716.1875 135.8281,714.5469 Q134.5156,712.8906 134.5156,709.7656 Q134.5156,706.6406 135.8281,704.9844 Q137.1563,703.3281 139.6563,703.3281 Q140.3594,703.3281 141,703.4844 Q141.6563,703.6406 142.2188,703.9375 L142.2188,706.6563 Q141.5938,706.0781 141,705.8125 Q140.4063,705.5313 139.7813,705.5313 Q138.4375,705.5313 137.75,706.6094 Q137.0625,707.6719 137.0625,709.7656 Q137.0625,711.8594 137.75,712.9375 Q138.4375,714 139.7813,714 Q140.4063,714 141,713.7344 Q141.5938,713.4531 142.2188,712.875 L142.2188,715.5938 Z " fill="#000000"/><text fill="#000000" font-family="sans-serif" font-size="12" lengthAdjust="spacing" textLength="45" x="159.75" y="714.1074">Battery</text><line style="stroke:#A80036;stroke-width:1.5;" x1="79" x2="253" y1="725.9531" y2="725.9531"/><text fill="#000000" font-family="sans-serif" font-size="11" lengthAdjust="spacing" textLength="68" x="84" y="740.1636">capacity: Ah</text><text fill="#000000" font-family="sans-serif" font-size="11" lengthAdjust="spacing" textLength="61" x="84" y="752.9683">charge: Ah</text><text fill="#000000" font-family="sans-serif" font-size="11" lengthAdjust="spacing" textLength="106" x="84" y="765.7729">performance: float</text><line style="stroke:#A80036;stroke-width:1.5;" x1="79" x2="253" y1="772.3672" y2="772.3672"/><text fill="#000000" font-family="sans-serif" font-size="11" lengthAdjust="spacing" textLength="147" x="84" y="786.5776">charge(amount: Ah) -&gt; Ah</text><text fill="#000000" font-family="sans-serif" font-size="11" lengthAdjust="spacing" textLength="164" x="84" y="799.3823">discharge(amount: Ah) -&gt; Ah</text><!--MD5=[f5a206a90fde6e161c357c4c7b874eab]
class stable_baselines3.Agent--><rect codeLine="73" fill="#FEFECE" filter="url(#fj3mq4oeoqgo6)" height="65.6094" id="stable_baselines3.Agent" style="stroke:#A80036;stroke-width:1.5;" width="80" x="921" y="61.9531"/><ellipse cx="940.95" cy="77.9531" fill="#B4A7E5" rx="11" ry="11" style="stroke:#A80036;stroke-width:1.0;"/><path d="M936.8719,73.7188 L936.8719,71.5625 L944.2625,71.5625 L944.2625,73.7188 L941.7938,73.7188 L941.7938,81.7969 L944.2625,81.7969 L944.2625,83.9531 L936.8719,83.9531 L936.8719,81.7969 L939.3406,81.7969 L939.3406,73.7188 L936.8719,73.7188 Z " fill="#000000"/><text fill="#000000" font-family="sans-serif" font-size="12" font-style="italic" lengthAdjust="spacing" textLength="37" x="956.05" y="82.1074">Agent</text><line style="stroke:#A80036;stroke-width:1.5;" x1="922" x2="1000" y1="93.9531" y2="93.9531"/><text fill="#000000" font-family="sans-serif" font-size="11" lengthAdjust="spacing" textLength="37" x="927" y="108.1636">learn()</text><text fill="#000000" font-family="sans-serif" font-size="11" lengthAdjust="spacing" textLength="68" x="927" y="120.9683">predict(obs)</text><!--MD5=[9c6e7b98b95b243057d3ab2cbf3ab142]
reverse link ml4trade.Unit to ml4trade.Ah--><path codeLine="78" d="M947.22,275.3231 C958.46,313.4931 973.96,366.0731 981.5,391.6931 " fill="none" id="ml4trade.Unit-backto-ml4trade.Ah" style="stroke:#A80036;stroke-width:1.0;"/><polygon fill="none" points="940.5,277.2831,941.56,256.1131,953.93,273.3231,940.5,277.2831" style="stroke:#A80036;stroke-width:1.0;"/><!--MD5=[ad0e0fcbabe9dbf9363f9f95c9dfb1a1]
reverse link ml4trade.Unit to ml4trade.KW--><path codeLine="79" d="M984.07,269.3131 C999.47,282.9231 1015.61,299.0531 1028,315.9531 C1045.69,340.0931 1058.57,372.8731 1065.12,391.7831 " fill="none" id="ml4trade.Unit-backto-ml4trade.KW" style="stroke:#A80036;stroke-width:1.0;"/><polygon fill="none" points="979.23,274.3831,968.48,256.1231,988.27,263.6931,979.23,274.3831" style="stroke:#A80036;stroke-width:1.0;"/><!--MD5=[418aa42dbcb8f17832eb06dc3ecf7c1d]
reverse link ml4trade.Unit to ml4trade.KWh--><path codeLine="80" d="M879.52,264.6131 C859.75,278.8131 838.29,296.5231 822,315.9531 C802.24,339.5231 787.72,372.7931 780.39,391.8931 " fill="none" id="ml4trade.Unit-backto-ml4trade.KWh" style="stroke:#A80036;stroke-width:1.0;"/><polygon fill="none" points="875.84,258.6531,896.28,253.0831,883.77,270.1831,875.84,258.6531" style="stroke:#A80036;stroke-width:1.0;"/><!--MD5=[0943d66c96638b3d96f833a55af42e41]
reverse link ml4trade.Unit to ml4trade.Currency--><path codeLine="81" d="M920.96,275.5831 C909.94,313.7331 894.79,366.1331 887.41,391.6931 " fill="none" id="ml4trade.Unit-backto-ml4trade.Currency" style="stroke:#A80036;stroke-width:1.0;"/><polygon fill="none" points="914.31,273.3931,926.58,256.1131,927.76,277.2731,914.31,273.3931" style="stroke:#A80036;stroke-width:1.0;"/><!--MD5=[909eaeb77d750598157410f0634457ba]
reverse link gym.Env to ml4trade.SimulationEnv--><path codeLine="83" d="M391,148.2231 C391,167.0131 391,187.3731 391,202.8731 " fill="none" id="gym.Env-backto-ml4trade.SimulationEnv" style="stroke:#A80036;stroke-width:1.0;"/><polygon fill="none" points="384,148.0231,391,128.0231,398,148.0231,384,148.0231" style="stroke:#A80036;stroke-width:1.0;"/><!--MD5=[af19ec7c54b9ee993dc0d87f6e6d5e89]
reverse link ml4trade.SimulationEnv to ml4trade.EnergyMarket--><path codeLine="84" d="M426.47,265.4231 C454.59,293.1531 494.08,332.0931 524.52,362.1131 " fill="none" id="ml4trade.SimulationEnv-backto-ml4trade.EnergyMarket" style="stroke:#A80036;stroke-width:1.0;"/><polygon fill="#A80036" points="417.03,256.1131,418.4936,263.1741,425.5744,264.5389,424.1108,257.4779,417.03,256.1131" style="stroke:#A80036;stroke-width:1.0;"/><text fill="#000000" font-family="sans-serif" font-size="13" lengthAdjust="spacing" textLength="8" x="413.8491" y="275.6884">1</text><text fill="#000000" font-family="sans-serif" font-size="13" lengthAdjust="spacing" textLength="8" x="509.2526" y="351.3394">1</text><!--MD5=[5d25bdc2d333c6793321b847d398d01b]
reverse link ml4trade.SimulationEnv to ml4trade.Prosumer--><path codeLine="85" d="M355.86,265.2931 C341.02,280.0031 322.99,297.8931 304.79,315.9331 " fill="none" id="ml4trade.SimulationEnv-backto-ml4trade.Prosumer" style="stroke:#A80036;stroke-width:1.0;"/><polygon fill="#A80036" points="365.12,256.1131,358.0435,257.4999,356.6018,264.5654,363.6783,263.1786,365.12,256.1131" style="stroke:#A80036;stroke-width:1.0;"/><text fill="#000000" font-family="sans-serif" font-size="13" lengthAdjust="spacing" textLength="8" x="350.5838" y="275.6884">1</text><text fill="#000000" font-family="sans-serif" font-size="13" lengthAdjust="spacing" textLength="8" x="304.0601" y="304.7621">1</text><!--MD5=[97409d5b272546b0a6dc5670638fb246]
reverse link ml4trade.EnergyMarket to gym_anytrading.TradingEnv--><path codeLine="86" d="M643.48,460.4831 C669.34,475.9831 699.38,491.1931 729,499.9531 C810.53,524.0531 1031.8,490.0431 1111,520.9531 C1134.46,530.1131 1156.38,547.7831 1172.83,563.6731 " fill="none" id="ml4trade.EnergyMarket-backto-gym_anytrading.TradingEnv" style="stroke:#A80036;stroke-width:1.0;"/><polygon fill="#A80036" points="632.28,453.5931,635.2931,460.1446,642.4994,459.883,639.4864,453.3316,632.28,453.5931" style="stroke:#A80036;stroke-width:1.0;"/><text fill="#000000" font-family="sans-serif" font-size="13" lengthAdjust="spacing" textLength="8" x="633.2041" y="473.7905">1</text><text fill="#000000" font-family="sans-serif" font-size="13" lengthAdjust="spacing" textLength="8" x="1158.2997" y="552.763">1</text><!--MD5=[c8cf0a5309da3a5bb66425a7714ce8a5]
reverse link ml4trade.BatterySystem to ml4trade.Battery--><path codeLine="87" d="M166,626.0731 C166,645.1031 166,670.8831 166,693.9131 " fill="none" id="ml4trade.BatterySystem-backto-ml4trade.Battery" style="stroke:#A80036;stroke-width:1.0;"/><polygon fill="#A80036" points="166,612.9831,162,618.9831,166,624.9831,170,618.9831,166,612.9831" style="stroke:#A80036;stroke-width:1.0;"/><text fill="#000000" font-family="sans-serif" font-size="13" lengthAdjust="spacing" textLength="8" x="156.625" y="633.1613">1</text><text fill="#000000" font-family="sans-serif" font-size="13" lengthAdjust="spacing" textLength="8" x="157.4875" y="682.846">n</text><!--MD5=[a16c679c6bb15e4c673c308ad2e51e64]
reverse link ml4trade.Prosumer to ml4trade.BatterySystem--><path codeLine="88" d="M186.91,512.7731 C180.17,539.5731 173.72,565.2331 169.81,580.7931 " fill="none" id="ml4trade.Prosumer-backto-ml4trade.BatterySystem" style="stroke:#A80036;stroke-width:1.0;"/><polygon fill="#A80036" points="190.12,499.9831,184.7765,504.8253,187.1909,511.6202,192.5345,506.778,190.12,499.9831" style="stroke:#A80036;stroke-width:1.0;"/><text fill="#000000" font-family="sans-serif" font-size="13" lengthAdjust="spacing" textLength="8" x="179.978" y="519.9847">1</text><text fill="#000000" font-family="sans-serif" font-size="13" lengthAdjust="spacing" textLength="8" x="161.7447" y="569.7497">1</text><!--MD5=[04d754ddffa908e35851e142df05dda0]
reverse link ml4trade.Prosumer to ml4trade.EnergySystem--><path codeLine="89" d="M287.69,510.9031 C300.49,528.3831 313.01,545.4631 323.42,559.6731 " fill="none" id="ml4trade.Prosumer-backto-ml4trade.EnergySystem" style="stroke:#A80036;stroke-width:1.0;"/><polygon fill="#A80036" points="279.69,499.9831,280.0109,507.1871,286.7841,509.6617,286.4632,502.4577,279.69,499.9831" style="stroke:#A80036;stroke-width:1.0;"/><text fill="#000000" font-family="sans-serif" font-size="13" lengthAdjust="spacing" textLength="8" x="276.6856" y="519.9847">1</text><text fill="#000000" font-family="sans-serif" font-size="13" lengthAdjust="spacing" textLength="8" x="309.9729" y="548.8102">1</text><!--MD5=[a1fd02342afedf819bc84c3926a3c771]
reverse link ml4trade.PowerSystem to ml4trade.ProductionSystem--><path codeLine="90" d="M559.18,635.0631 C513.12,666.8231 449.16,710.9231 415.96,733.8131 " fill="none" id="ml4trade.PowerSystem-backto-ml4trade.ProductionSystem" style="stroke:#A80036;stroke-width:1.0;"/><polygon fill="none" points="555.41,629.1631,575.85,623.5731,563.36,640.6831,555.41,629.1631" style="stroke:#A80036;stroke-width:1.0;"/><!--MD5=[46921362f87a108f3df927a16289a18d]
reverse link ml4trade.PowerSystem to ml4trade.ConsumptionSystem--><path codeLine="91" d="M608.15,643.7231 C604.9,674.4231 600.82,712.9331 598.6,733.8131 " fill="none" id="ml4trade.PowerSystem-backto-ml4trade.ConsumptionSystem" style="stroke:#A80036;stroke-width:1.0;"/><polygon fill="none" points="601.22,642.7231,610.29,623.5731,615.14,644.1931,601.22,642.7231" style="stroke:#A80036;stroke-width:1.0;"/><!--MD5=[72e8a538cb02da8f739bfdac5e74652f]
reverse link ml4trade.EnergySystem to ml4trade.ProductionSystem--><path codeLine="92" d="M364.28,646.9731 C373.04,677.0331 383.67,713.5031 389.55,733.6731 " fill="none" id="ml4trade.EnergySystem-backto-ml4trade.ProductionSystem" style="stroke:#A80036;stroke-width:1.0;"/><polygon fill="#A80036" points="360.54,634.1231,358.3755,641.0017,363.8924,645.6453,366.0569,638.7668,360.54,634.1231" style="stroke:#A80036;stroke-width:1.0;"/><text fill="#000000" font-family="sans-serif" font-size="13" lengthAdjust="spacing" textLength="8" x="353.6232" y="653.6318">1</text><text fill="#000000" font-family="sans-serif" font-size="13" lengthAdjust="spacing" textLength="8" x="378.7509" y="722.8849">n</text><!--MD5=[d46fb11b803ab76818973c062f2f32c7]
reverse link ml4trade.EnergySystem to ml4trade.ConsumptionSystem--><path codeLine="93" d="M420.45,641.0231 C471.39,672.1631 537.19,712.3931 572.32,733.8631 " fill="none" id="ml4trade.EnergySystem-backto-ml4trade.ConsumptionSystem" style="stroke:#A80036;stroke-width:1.0;"/><polygon fill="#A80036" points="409.16,634.1231,412.1891,640.6672,419.3948,640.388,416.3657,633.844,409.16,634.1231" style="stroke:#A80036;stroke-width:1.0;"/><text fill="#000000" font-family="sans-serif" font-size="13" lengthAdjust="spacing" textLength="8" x="410.2959" y="653.6318">1</text><text fill="#000000" font-family="sans-serif" font-size="13" lengthAdjust="spacing" textLength="8" x="554.4613" y="722.8438">n</text><!--MD5=[3fb7e82ebf53aa9581f2108cb11e8198]
@startuml
hide empty methods
hide empty fields

title ml4trade structure

interface gym.Env {
  reset()
  step(action)
}

class gym_anytrading.TradingEnv {
  reset()
  step(action)
}

interface ml4trade.Unit {
  value: float
}
class ml4trade.Ah
class ml4trade.KW
class ml4trade.KWh
class ml4trade.Currency

class ml4trade.SimulationEnv {
  _simulate_day()
}

class ml4trade.EnergyMarket {
  buy(amount: KWh, price: Currency) -> Currency
  sell(amount: KWh, price: Currency) -> Currency
  get_current_buy_price() -> Currency
  get_current_sell_price() -> Currency
}

class ml4trade.Prosumer {
  balance: Currency
  energy_market: EnergyMarket
  battery_system: BatterySystem
  energy_system: EnergySystem
  - - -
  _buy(amount: KWh, price: Currency, forced: bool) -> Currency
  _sell(amount: KWh, price: Currency, forced: bool) -> Currency
  - - -
  consume_energy()
  produce_energy()
  send_scheduled_transaction()
  schedule_new_transactions(action)
}

class ml4trade.BatterySystem

class ml4trade.EnergySystem {
  systems: list[PowerSystem]

  get_power(date: Date) -> KW
}

interface ml4trade.PowerSystem {
  get_power(date: Date, callback: Callable) -> KW
}
class ml4trade.ProductionSystem
class ml4trade.ConsumptionSystem

class ml4trade.Battery {
  capacity: Ah
  charge: Ah
  performance: float
  
  charge(amount: Ah) -> Ah
  discharge(amount: Ah) -> Ah
}

interface stable_baselines3.Agent {
  learn()
  predict(obs)
}

ml4trade.Unit <|- - ml4trade.Ah
ml4trade.Unit <|- - ml4trade.KW
ml4trade.Unit <|- - ml4trade.KWh
ml4trade.Unit <|- - ml4trade.Currency

gym.Env <|- - ml4trade.SimulationEnv
ml4trade.SimulationEnv "1" *- - "1" ml4trade.EnergyMarket
ml4trade.SimulationEnv "1" *- - "1" ml4trade.Prosumer
ml4trade.EnergyMarket "1" *- - "1" gym_anytrading.TradingEnv
ml4trade.BatterySystem "1" *- - "n" ml4trade.Battery
ml4trade.Prosumer "1" *- - "1" ml4trade.BatterySystem
ml4trade.Prosumer "1" *- - "1" ml4trade.EnergySystem 
ml4trade.PowerSystem <|- - ml4trade.ProductionSystem
ml4trade.PowerSystem <|- - ml4trade.ConsumptionSystem
ml4trade.EnergySystem "1" *- - "n" ml4trade.ProductionSystem
ml4trade.EnergySystem "1" *- - "n" ml4trade.ConsumptionSystem
@enduml

PlantUML version 1.2022.1(Tue Feb 01 18:19:58 UTC 2022)
(GPL source distribution)
Java Runtime: OpenJDK Runtime Environment
JVM: OpenJDK 64-Bit Server VM
Default Encoding: UTF-8
Language: en
Country: null
--></g></svg>